<svg id="Layer_1" data-name="Layer 1" xmlns="http://www.w3.org/2000/svg" viewBox="0 0 1327.54 329.77"><defs><style>.cls-1{fill:#27348b;}.cls-2{fill:#ea5b0c;}</style></defs><title>logo</title><path class="cls-1" d="M67.05,205.67c-7.88,0-11.55-3.38-11.55-11.55V29.3H11.55C3.38,29.3,0,25.64,0,17.75V14.37C0,6.2,3.38,2.82,11.55,2.82H134.11c7.89,0,11.27,3.38,11.27,11.55v3.38c0,7.89-3.38,11.55-11.27,11.55H91V194.12c0,8.17-3.66,11.55-11.55,11.55Z"/><path class="cls-1" d="M275.82,177.78c7.89,0,11.55,3.38,11.55,11.55v4.79c0,8.17-3.66,11.55-11.55,11.55H231.31c-46.21,0-67.62-21.13-67.62-66.21V14.37c0-8.17,3.66-11.55,11.55-11.55h12.4c7.88,0,11.55,3.38,11.55,11.55V131.29c0,32.4,13.52,46.49,47.05,46.49Z"/><path class="cls-1" d="M429.65,19.72c-1.13,8.73-3.95,11-10.71,10.14a292,292,0,0,0-44.23-3.66c-22.82,0-38.88,4.51-38.88,25.64,0,44.23,99.17,16.06,99.17,97.48,0,42.54-29,59.17-76.92,59.17-19.72,0-35.5-2-49.58-4-7.89-.84-10.14-4.51-10.14-11.55v-4.51c0-7.89,4.5-10.42,11.83-9.86,7.89,1.13,29.86,3.67,47.61,3.67,36.91,0,42.83-16.91,42.83-30.71,0-53.54-98.89-28.74-98.89-96.92,0-44.52,33.8-54.66,73-54.66,15.49,0,34.37,1.69,47.05,4.51,5.35,1.12,9.86,2.82,8.45,10.7Z"/><path class="cls-2" d="M561.22,65.64c-.57,4-1.41,5.08-4.79,4.79-12.4-1.4-15.78-2-28.18-2-34.09,0-48.46,21.42-48.46,60.29v4.79c0,39.73,15.22,60,49.87,60a169.23,169.23,0,0,0,27.61-2.25c3.66-.56,4.23,3.1,4.51,5.07l.56,3.38c.57,3.95-.84,5.07-4.79,5.64-12.11,2-22.82,3.1-31.55,3.1-46.77,0-66.21-25.92-66.21-75.51v-4.23c0-48.17,20-75.22,64.8-75.22a166.3,166.3,0,0,1,32.68,2.82c3.38.56,5.35,1.69,4.79,5.91Z"/><path class="cls-2" d="M587.7,128.47c0-47.33,22-74.94,65.36-74.94s65.36,27.61,65.36,74.94v4.79c0,47.05-22,75.23-65.36,75.23s-65.36-28.18-65.36-75.23Zm110.72,0c0-38-14.93-60-45.36-60-30.71,0-45.36,22-45.36,60v4.79c0,37.19,14.65,60.29,45.36,60.29,30.43,0,45.36-23.1,45.36-60.29Z"/><path class="cls-2" d="M868.31,199.47c0,4.23-2,6.2-5.92,6.2h-6.48c-4.22,0-6.2-2-6.2-6.2V107.91c0-23.11-10.42-38.6-36.06-38.6-15.21,0-35.5,5.35-42.82,9V199.47c0,4.23-2,6.2-6.2,6.2h-6.48c-4.23,0-6.2-2-6.2-6.2V74.1c0-4.23,2-7,5.92-9,11.55-5.35,35.21-11.55,57.19-11.55,37.75,0,53.25,20.57,53.25,52.12Z"/><path class="cls-2" d="M910,71.28H899.86c-4.22,0-6.2-2-6.2-6.2V62.55c0-4.23,2-6.2,6.2-6.2H910V30.43c0-4.23,2-6.2,6.19-6.2h6.48c4.23,0,6.2,2,6.2,6.2V56.35h26.77c4.5,0,6.2,2,6.2,6.2v2.53c0,4.23-1.7,6.2-6.2,6.2H928.88v96.07c0,13.81,4.51,23.39,19.44,23.39a59.81,59.81,0,0,0,14.37-2c2.54-.28,4.23,2,4.23,5.92v2.82c0,4.22-.29,5.35-4.79,5.92a51,51,0,0,1-15.78,2.25c-25.92,0-36.34-13-36.34-38.32Z"/><path class="cls-2" d="M1079.05,127.06V97.2c0-17.19-8.46-28.74-36.07-28.74-14.65,0-33.8,2.82-42.82,4.51-4.79.85-5.35-.28-6.48-4.79l-.56-2.25c-1.13-5.07.84-6.48,5.07-7.33,12.11-2.82,34.37-5.07,49-5.07,37.75,0,50.71,14.93,50.71,43.67v96.07c0,4.51-.84,5.92-6.2,7.33-8.45,3.38-26.2,7.89-48.74,7.89-34.93,0-61.7-9.87-61.7-42.83v-3.94c0-26.77,20-41.7,55.79-41.7A128.92,128.92,0,0,1,1079.05,127.06Zm-77.76,37.76c0,22,15.49,30.14,42.82,30.14,17.19,0,29.87-3.38,34.94-5.35v-49c-5.64-3.1-20.29-7.33-37.47-7.33-27,0-40.29,10.43-40.29,29.58Z"/><path class="cls-2" d="M1232.87,65.64c-.56,4-1.41,5.08-4.79,4.79-12.39-1.4-15.77-2-28.17-2-34.09,0-48.46,21.42-48.46,60.29v4.79c0,39.73,15.21,60,49.87,60a169.33,169.33,0,0,0,27.61-2.25c3.66-.56,4.22,3.1,4.51,5.07l.56,3.38c.56,3.95-.85,5.07-4.79,5.64-12.11,2-22.82,3.1-31.55,3.1-46.77,0-66.21-25.92-66.21-75.51v-4.23c0-48.17,20-75.22,64.8-75.22a166.37,166.37,0,0,1,32.68,2.82c3.38.56,5.35,1.69,4.79,5.91Z"/><path class="cls-2" d="M1267.52,71.28h-10.14c-4.22,0-6.2-2-6.2-6.2V62.55c0-4.23,2-6.2,6.2-6.2h10.14V30.43c0-4.23,2-6.2,6.2-6.2h6.48c4.23,0,6.2,2,6.2,6.2V56.35h26.77c4.5,0,6.19,2,6.19,6.2v2.53c0,4.23-1.69,6.2-6.19,6.2H1286.4v96.07c0,13.81,4.51,23.39,19.44,23.39a59.81,59.81,0,0,0,14.37-2c2.54-.28,4.23,2,4.23,5.92v2.82c0,4.22-.29,5.35-4.79,5.92a51,51,0,0,1-15.78,2.25c-25.92,0-36.35-13-36.35-38.32Z"/><path class="cls-1" d="M491.39,315.37l-3.12-10.2h-15.6l-3.12,10.2h-9.78l15.12-43H486l15.18,43Zm-5.28-17.82-3.12-10q-.3-1-.78-2.58t-1-3.18q-.48-1.62-.78-2.82-.3,1.2-.81,3t-1,3.36q-.45,1.59-.69,2.25l-3.06,10Z"/><path class="cls-1" d="M538.67,315.37h-9.06V280.09H518v-7.56h32.34v7.56H538.67Z"/><path class="cls-1" d="M569.69,282q6.78,0,10.74,3.87t4,11v4.32H563.27a8.5,8.5,0,0,0,2.25,5.94,7.91,7.91,0,0,0,5.91,2.16,24.47,24.47,0,0,0,5.73-.63,27.36,27.36,0,0,0,5.37-1.95v6.9a22.52,22.52,0,0,1-5.1,1.77A31,31,0,0,1,571,316a19.73,19.73,0,0,1-8.7-1.83,13.64,13.64,0,0,1-5.94-5.52,18.38,18.38,0,0,1-2.16-9.39,20.94,20.94,0,0,1,1.95-9.54,13.13,13.13,0,0,1,5.43-5.76A16.47,16.47,0,0,1,569.69,282Zm.06,6.36a5.82,5.82,0,0,0-4.32,1.68,8.14,8.14,0,0,0-2,5.22H576a8.15,8.15,0,0,0-1.59-4.92A5.52,5.52,0,0,0,569.75,288.37Z"/><path class="cls-1" d="M600.58,315.37h-8.93v-45.6h8.93Z"/><path class="cls-1" d="M623.44,282q6.78,0,10.74,3.87t4,11v4.32H617a8.5,8.5,0,0,0,2.25,5.94,7.92,7.92,0,0,0,5.91,2.16,24.41,24.41,0,0,0,5.73-.63,27.36,27.36,0,0,0,5.37-1.95v6.9a22.36,22.36,0,0,1-5.1,1.77,30.93,30.93,0,0,1-6.42.57,19.73,19.73,0,0,1-8.7-1.83,13.64,13.64,0,0,1-5.94-5.52,18.38,18.38,0,0,1-2.16-9.39,20.94,20.94,0,0,1,1.95-9.54,13.19,13.19,0,0,1,5.43-5.76A16.5,16.5,0,0,1,623.44,282Zm.06,6.36a5.85,5.85,0,0,0-4.32,1.68,8.14,8.14,0,0,0-2,5.22h12.54a8.09,8.09,0,0,0-1.59-4.92A5.51,5.51,0,0,0,623.5,288.37Z"/><path class="cls-1" d="M663.64,282a10.89,10.89,0,0,1,8.94,4.29q3.42,4.29,3.42,12.63t-3.54,12.72A11.2,11.2,0,0,1,663.4,316a10.7,10.7,0,0,1-5.64-1.29,13.39,13.39,0,0,1-3.42-2.91h-.48a25.68,25.68,0,0,1,.48,4.8v13.2H645.4V282.61h7.26l1.26,4.26h.42a12.07,12.07,0,0,1,3.54-3.42A10.42,10.42,0,0,1,663.64,282Zm-2.88,7.14q-3.48,0-4.92,2.19t-1.5,6.57v1a15.3,15.3,0,0,0,1.41,7.29q1.41,2.55,5.13,2.55a4.88,4.88,0,0,0,4.53-2.55,14.92,14.92,0,0,0,1.47-7.35Q666.88,289.15,660.76,289.15Z"/><path class="cls-1" d="M696.88,282q6.78,0,10.74,3.87t4,11v4.32H690.46a8.5,8.5,0,0,0,2.25,5.94,7.92,7.92,0,0,0,5.91,2.16,24.41,24.41,0,0,0,5.73-.63,27.36,27.36,0,0,0,5.37-1.95v6.9a22.36,22.36,0,0,1-5.1,1.77,30.93,30.93,0,0,1-6.42.57,19.73,19.73,0,0,1-8.7-1.83,13.64,13.64,0,0,1-5.94-5.52,18.38,18.38,0,0,1-2.16-9.39,20.94,20.94,0,0,1,2-9.54,13.19,13.19,0,0,1,5.43-5.76A16.5,16.5,0,0,1,696.88,282Zm.06,6.36a5.85,5.85,0,0,0-4.32,1.68,8.14,8.14,0,0,0-2,5.22h12.54a8.09,8.09,0,0,0-1.59-4.92A5.51,5.51,0,0,0,696.94,288.37Z"/><path class="cls-1" d="M737.14,282q.66,0,1.56.06a10,10,0,0,1,1.44.18l-.66,8.4a10.21,10.21,0,0,0-1.26-.21,12.2,12.2,0,0,0-1.38-.09,12.07,12.07,0,0,0-4.38.81,7.32,7.32,0,0,0-3.39,2.61,8.3,8.3,0,0,0-1.29,4.92v16.68h-8.94V282.61h6.78l1.32,5.52h.42a13.54,13.54,0,0,1,4-4.32A9.76,9.76,0,0,1,737.14,282Z"/><path class="cls-1" d="M764.2,289.33h-7.74v26h-8.94v-26H742.6V285l4.92-2.4v-2.4a12.54,12.54,0,0,1,1.41-6.51,7.67,7.67,0,0,1,4-3.27,17.81,17.81,0,0,1,6.15-1,24.88,24.88,0,0,1,4.74.42,19,19,0,0,1,3.48,1L765,277.39q-1-.3-2.25-.57a12.76,12.76,0,0,0-2.73-.27,3.21,3.21,0,0,0-2.73,1.14,4.61,4.61,0,0,0-.87,2.88v2h7.74Z"/><path class="cls-1" d="M799.06,298.93q0,8.16-4.29,12.6T783.1,316a16.48,16.48,0,0,1-8.13-2,14,14,0,0,1-5.61-5.79,19.42,19.42,0,0,1-2-9.27q0-8.16,4.26-12.54t11.7-4.38a16.43,16.43,0,0,1,8.16,2,14.09,14.09,0,0,1,5.58,5.76A19.1,19.1,0,0,1,799.06,298.93Zm-22.62,0q0,4.86,1.59,7.35a5.69,5.69,0,0,0,5.19,2.49,5.63,5.63,0,0,0,5.13-2.49q1.59-2.49,1.59-7.35t-1.59-7.29q-1.59-2.43-5.19-2.43a5.68,5.68,0,0,0-5.13,2.43Q776.44,294.07,776.44,298.93Z"/><path class="cls-1" d="M824.74,282q.66,0,1.56.06a10,10,0,0,1,1.44.18l-.66,8.4a10.21,10.21,0,0,0-1.26-.21,12.2,12.2,0,0,0-1.38-.09,12.07,12.07,0,0,0-4.38.81,7.32,7.32,0,0,0-3.39,2.61,8.3,8.3,0,0,0-1.29,4.92v16.68h-8.94V282.61h6.78l1.32,5.52H815a13.54,13.54,0,0,1,4-4.32A9.76,9.76,0,0,1,824.74,282Z"/><path class="cls-1" d="M872.14,282q5.58,0,8.43,2.85t2.85,9.15v21.36h-8.94V296.23q0-7.08-4.92-7.08a5.39,5.39,0,0,0-5,2.52q-1.5,2.52-1.5,7.26v16.44h-8.94V296.23q0-7.08-4.92-7.08-3.72,0-5.13,2.79a18.19,18.19,0,0,0-1.41,8v15.42h-8.94V282.61h6.84l1.2,4.2h.48a8.78,8.78,0,0,1,4.11-3.66,13.43,13.43,0,0,1,5.43-1.14,14.26,14.26,0,0,1,6.09,1.17,8.49,8.49,0,0,1,3.87,3.63h.78a8.73,8.73,0,0,1,4.17-3.66A13.85,13.85,0,0,1,872.14,282Z"/><path class="cls-1" d="M906,282q6.6,0,10.11,2.85t3.51,8.73v21.84h-6.24l-1.74-4.44h-.24a13.93,13.93,0,0,1-4.44,3.84,14.23,14.23,0,0,1-6.42,1.2,10.62,10.62,0,0,1-7.26-2.52q-2.88-2.52-2.88-7.86t3.66-7.68q3.66-2.46,11-2.76l5.7-.18v-1.44a4.81,4.81,0,0,0-1.35-3.78,5.45,5.45,0,0,0-3.75-1.2,16.07,16.07,0,0,0-4.68.69,38.41,38.41,0,0,0-4.56,1.71l-2.94-6.06a27.26,27.26,0,0,1,5.82-2.13A27.6,27.6,0,0,1,906,282Zm4.74,18.24-3.48.12q-4.32.12-6,1.56a4.74,4.74,0,0,0-1.68,3.78,3.35,3.35,0,0,0,1.2,2.91,5.19,5.19,0,0,0,3.12.87,7.18,7.18,0,0,0,4.86-1.71,6,6,0,0,0,2-4.83Z"/><path class="cls-1" d="M947.44,282a12.2,12.2,0,0,1,8.46,2.85q3.18,2.85,3.18,9.15v21.36h-8.94V296.23a9.16,9.16,0,0,0-1.26-5.31,4.59,4.59,0,0,0-4-1.77q-4.08,0-5.58,2.79t-1.5,8v15.42h-8.94V282.61h6.84l1.2,4.2h.48a9,9,0,0,1,4.29-3.66A14.87,14.87,0,0,1,947.44,282Z"/><path class="cls-1" d="M981.58,316q-7.32,0-11.31-4t-4-12.78a20.52,20.52,0,0,1,2-9.78,12.84,12.84,0,0,1,5.67-5.58,18.61,18.61,0,0,1,8.37-1.8,23,23,0,0,1,5.85.66,24.33,24.33,0,0,1,4.35,1.56l-2.64,6.9q-2.1-.84-3.93-1.38a12.78,12.78,0,0,0-3.63-.54q-7,0-7,9.9,0,4.92,1.83,7.26a6.14,6.14,0,0,0,5.13,2.34,15.16,15.16,0,0,0,5-.75,19.49,19.49,0,0,0,4.2-2.07v7.62a14.35,14.35,0,0,1-4.29,1.89A23.6,23.6,0,0,1,981.58,316Z"/><path class="cls-1" d="M1012.6,282q6.78,0,10.74,3.87t4,11v4.32h-21.12a8.5,8.5,0,0,0,2.25,5.94,7.92,7.92,0,0,0,5.91,2.16,24.41,24.41,0,0,0,5.73-.63,27.36,27.36,0,0,0,5.37-1.95v6.9a22.36,22.36,0,0,1-5.1,1.77,30.93,30.93,0,0,1-6.42.57,19.73,19.73,0,0,1-8.7-1.83,13.64,13.64,0,0,1-5.94-5.52,18.38,18.38,0,0,1-2.16-9.39,20.94,20.94,0,0,1,2-9.54,13.19,13.19,0,0,1,5.43-5.76A16.5,16.5,0,0,1,1012.6,282Zm.06,6.36a5.85,5.85,0,0,0-4.32,1.68,8.14,8.14,0,0,0-2,5.22h12.54a8.09,8.09,0,0,0-1.59-4.92A5.51,5.51,0,0,0,1012.66,288.37Z"/><path class="cls-1" d="M1069.06,279.49a9.17,9.17,0,0,0-8,3.9q-2.76,3.9-2.76,10.68t2.55,10.59q2.55,3.75,8.19,3.75a23.5,23.5,0,0,0,5.22-.6,51.61,51.61,0,0,0,5.7-1.68v7.62a30.53,30.53,0,0,1-5.58,1.68,32.31,32.31,0,0,1-6.18.54q-6.66,0-10.92-2.73a16.18,16.18,0,0,1-6.3-7.68,30.16,30.16,0,0,1-2-11.55,26.66,26.66,0,0,1,2.34-11.46,18.1,18.1,0,0,1,6.81-7.8,20.13,20.13,0,0,1,11-2.82,26,26,0,0,1,6.39.81,34,34,0,0,1,6.15,2.19l-2.94,7.38a47.18,47.18,0,0,0-4.83-2A14.54,14.54,0,0,0,1069.06,279.49Z"/><path class="cls-1" d="M1118.14,298.93q0,8.16-4.29,12.6T1102.18,316a16.48,16.48,0,0,1-8.13-2,14,14,0,0,1-5.61-5.79,19.42,19.42,0,0,1-2-9.27q0-8.16,4.26-12.54t11.7-4.38a16.43,16.43,0,0,1,8.16,2,14.09,14.09,0,0,1,5.58,5.76A19.1,19.1,0,0,1,1118.14,298.93Zm-22.62,0q0,4.86,1.59,7.35a5.69,5.69,0,0,0,5.19,2.49,5.63,5.63,0,0,0,5.13-2.49q1.59-2.49,1.59-7.35t-1.59-7.29q-1.59-2.43-5.19-2.43a5.68,5.68,0,0,0-5.13,2.43Q1095.52,294.07,1095.52,298.93Z"/><path class="cls-1" d="M1164,282q5.58,0,8.43,2.85t2.85,9.15v21.36h-8.94V296.23q0-7.08-4.92-7.08a5.39,5.39,0,0,0-5,2.52q-1.5,2.52-1.5,7.26v16.44h-8.94V296.23q0-7.08-4.92-7.08-3.72,0-5.13,2.79a18.19,18.19,0,0,0-1.41,8v15.42h-8.94V282.61h6.84l1.2,4.2h.48a8.78,8.78,0,0,1,4.11-3.66,13.43,13.43,0,0,1,5.43-1.14,14.26,14.26,0,0,1,6.09,1.17,8.49,8.49,0,0,1,3.87,3.63h.78a8.73,8.73,0,0,1,4.17-3.66A13.85,13.85,0,0,1,1164,282Z"/><path class="cls-1" d="M1202.68,282a10.89,10.89,0,0,1,8.94,4.29q3.42,4.29,3.42,12.63t-3.54,12.72a11.2,11.2,0,0,1-9.06,4.32,10.7,10.7,0,0,1-5.64-1.29,13.39,13.39,0,0,1-3.42-2.91h-.48a25.68,25.68,0,0,1,.48,4.8v13.2h-8.94V282.61h7.26l1.26,4.26h.42a12.07,12.07,0,0,1,3.54-3.42A10.42,10.42,0,0,1,1202.68,282Zm-2.88,7.14q-3.48,0-4.92,2.19t-1.5,6.57v1a15.3,15.3,0,0,0,1.41,7.29q1.41,2.55,5.13,2.55a4.88,4.88,0,0,0,4.53-2.55,14.92,14.92,0,0,0,1.47-7.35Q1205.92,289.15,1199.8,289.15Z"/><path class="cls-1" d="M1235.86,282q6.6,0,10.11,2.85t3.51,8.73v21.84h-6.24l-1.74-4.44h-.24a13.93,13.93,0,0,1-4.44,3.84,14.23,14.23,0,0,1-6.42,1.2,10.62,10.62,0,0,1-7.26-2.52q-2.88-2.52-2.88-7.86t3.66-7.68q3.66-2.46,11-2.76l5.7-.18v-1.44a4.81,4.81,0,0,0-1.35-3.78,5.45,5.45,0,0,0-3.75-1.2,16.07,16.07,0,0,0-4.68.69,38.41,38.41,0,0,0-4.56,1.71l-2.94-6.06a27.26,27.26,0,0,1,5.82-2.13A27.6,27.6,0,0,1,1235.86,282Zm4.74,18.24-3.48.12q-4.32.12-6,1.56a4.74,4.74,0,0,0-1.68,3.78,3.35,3.35,0,0,0,1.2,2.91,5.19,5.19,0,0,0,3.12.87,7.18,7.18,0,0,0,4.86-1.71,6,6,0,0,0,2-4.83Z"/><path class="cls-1" d="M1277.26,282a12.2,12.2,0,0,1,8.46,2.85q3.18,2.85,3.18,9.15v21.36H1280V296.23a9.16,9.16,0,0,0-1.26-5.31,4.59,4.59,0,0,0-4-1.77q-4.08,0-5.58,2.79t-1.5,8v15.42h-8.94V282.61h6.84l1.2,4.2h.48a9,9,0,0,1,4.29-3.66A14.87,14.87,0,0,1,1277.26,282Z"/><path class="cls-1" d="M1293.4,282.61h9.78l6.18,18.42a17.54,17.54,0,0,1,.72,2.76q.24,1.38.36,2.94h.18q.18-1.56.48-2.94a23.76,23.76,0,0,1,.78-2.76l6.06-18.42h9.6l-13.86,37a16.07,16.07,0,0,1-5.46,7.65,13.7,13.7,0,0,1-8.22,2.55,19.62,19.62,0,0,1-2.64-.15q-1.08-.15-1.92-.33v-7.08q.6.12,1.56.24a16,16,0,0,0,2,.12,5.82,5.82,0,0,0,4.44-1.71,11.33,11.33,0,0,0,2.46-4.11l.54-1.62Z"/></svg>